<?xml version="1.0" encoding="iso-8859-1"?>
<!-- Generator: Adobe Illustrator 18.0.0, SVG Export Plug-In . SVG Version: 6.00 Build 0)  -->
<!DOCTYPE svg PUBLIC "-//W3C//DTD SVG 1.1//EN" "http://www.w3.org/Graphics/SVG/1.1/DTD/svg11.dtd">
<svg version="1.1" id="Capa_1" xmlns="http://www.w3.org/2000/svg" xmlns:xlink="http://www.w3.org/1999/xlink" x="0px" y="0px"
	 viewBox="0 0 317.235 317.235" style="enable-background:new 0 0 317.235 317.235;" xml:space="preserve">
<g>
	<path d="M277.227,141.571c-0.942-7.235-4.646-13.67-10.428-18.12s-12.952-6.38-20.186-5.439
		c-7.235,0.942-13.67,4.646-18.125,10.435l-12.192,15.884V44.556c0-15.062-12.253-27.315-27.315-27.315
		c-5.127,0-9.927,1.422-14.03,3.889C172.139,9.039,161.284,0,148.351,0c-12.934,0-23.789,9.039-26.6,21.129
		c-4.104-2.467-8.903-3.889-14.03-3.889c-15.062,0-27.315,12.253-27.315,27.315v16.829c-3.943-2.211-8.483-3.478-13.315-3.478
		c-15.062,0-27.315,12.253-27.315,27.315v118.925c0,26.744,11.959,50.745,30.807,66.944c0,0.014-0.002,0.028-0.002,0.042v39.103
		c0,3.866,3.134,7,7,7h103c3.866,0,7-3.134,7-7v-39.103c0-0.571-0.076-1.123-0.205-1.654c2.86-2.6,5.569-5.398,8.099-8.392
		c0.07-0.083,0.138-0.168,0.205-0.254l76.108-99.076C276.237,155.975,278.169,148.806,277.227,141.571z M173.581,303.235h-89
		v-22.291c12.836,7.292,27.667,11.463,43.455,11.463c16.262,0,31.955-4.453,45.545-12.646V303.235z M260.689,153.224l-76.011,98.949
		c-14.153,16.675-34.789,26.235-56.643,26.235c-40.947,0-74.26-33.313-74.26-74.26V85.222c0-7.342,5.973-13.315,13.315-13.315
		c7.342,0,13.315,5.973,13.315,13.315v60.981c0,3.866,3.134,7,7,7s7-3.134,7-7V44.556c0-7.342,5.973-13.315,13.315-13.315
		s13.315,5.973,13.315,13.315v101.648c0,3.866,3.134,7,7,7s7-3.134,7-7V27.315c0-7.342,5.973-13.315,13.315-13.315
		c7.342,0,13.315,5.973,13.315,13.315v118.888c0,3.866,3.134,7,7,7s7-3.134,7-7V44.556c0-7.342,5.973-13.315,13.315-13.315
		c7.342,0,13.315,5.973,13.315,13.315v120.39c0,2.999,1.91,5.664,4.75,6.628c2.837,0.963,5.977,0.013,7.803-2.366l24.74-32.23
		c2.169-2.818,5.306-4.624,8.833-5.083c3.526-0.462,7.021,0.482,9.84,2.651c2.818,2.169,4.624,5.306,5.083,8.833
		S262.862,150.4,260.689,153.224z"/>
</g>
<g>
</g>
<g>
</g>
<g>
</g>
<g>
</g>
<g>
</g>
<g>
</g>
<g>
</g>
<g>
</g>
<g>
</g>
<g>
</g>
<g>
</g>
<g>
</g>
<g>
</g>
<g>
</g>
<g>
</g>
</svg>
