<?xml version="1.0" encoding="iso-8859-1"?>
<!-- Generator: Adobe Illustrator 18.0.0, SVG Export Plug-In . SVG Version: 6.00 Build 0)  -->
<!DOCTYPE svg PUBLIC "-//W3C//DTD SVG 1.1//EN" "http://www.w3.org/Graphics/SVG/1.1/DTD/svg11.dtd">
<svg version="1.1" id="Capa_1" xmlns="http://www.w3.org/2000/svg" xmlns:xlink="http://www.w3.org/1999/xlink" x="0px" y="0px"
	 viewBox="0 0 318.235 318.235" style="enable-background:new 0 0 318.235 318.235;" xml:space="preserve">
<g>
	<path d="M220.054,17.238c-5.126,0-9.925,1.422-14.027,3.888C203.215,9.037,192.362,0,179.43,0s-23.785,9.037-26.597,21.126
		c-4.103-2.466-8.902-3.888-14.028-3.888c-15.06,0-27.312,12.252-27.312,27.312v0.811c-3.942-2.21-8.481-3.476-13.312-3.476
		c-15.06,0-27.312,12.252-27.312,27.313v134.921c0,26.356,11.617,50.046,29.996,66.23c-0.151,0.573-0.24,1.171-0.24,1.791v39.097
		c0,3.866,3.134,7,7,7H210.61c3.866,0,7-3.134,7-7v-39.097c0-0.62-0.089-1.218-0.24-1.791c18.378-16.184,29.996-39.874,29.996-66.23
		V44.55C247.366,29.49,235.114,17.238,220.054,17.238z M203.61,304.235h-88.985v-23.934c13.072,7.663,28.277,12.065,44.493,12.065
		s31.421-4.401,44.493-12.065V304.235z M159.117,278.366c-40.94,0-74.248-33.308-74.248-74.249V69.197
		c0-7.34,5.972-13.313,13.312-13.313s13.312,5.972,13.312,13.313v59.749c0,3.866,3.134,7,7,7s7-3.134,7-7V44.55
		c0-7.34,5.972-13.312,13.312-13.312s13.313,5.972,13.313,13.312v84.396c0,3.866,3.134,7,7,7s7-3.134,7-7V27.313
		c0-7.34,5.972-13.313,13.312-13.313s13.312,5.972,13.312,13.313v101.633c0,3.866,3.134,7,7,7s7-3.134,7-7V44.55
		c0-7.34,5.972-13.312,13.312-13.312s13.313,5.972,13.313,13.312v127.006l-63.978-22.788c-6.873-2.448-14.287-2.073-20.877,1.056
		c-6.59,3.129-11.568,8.637-14.016,15.509c-2.448,6.873-2.073,14.287,1.056,20.877c3.128,6.59,8.636,11.568,15.509,14.016
		l39.913,14.217c0.776,0.276,1.569,0.408,2.349,0.408c2.877,0,5.574-1.788,6.594-4.653c1.297-3.642-0.604-7.646-4.246-8.943
		l-39.913-14.217c-3.35-1.193-6.034-3.619-7.559-6.832c-1.525-3.212-1.708-6.826-0.514-10.175c1.193-3.35,3.619-6.034,6.831-7.559
		c3.212-1.525,6.826-1.708,10.176-0.515l68.675,24.461v17.701C233.366,245.059,200.058,278.366,159.117,278.366z"/>
</g>
<g>
</g>
<g>
</g>
<g>
</g>
<g>
</g>
<g>
</g>
<g>
</g>
<g>
</g>
<g>
</g>
<g>
</g>
<g>
</g>
<g>
</g>
<g>
</g>
<g>
</g>
<g>
</g>
<g>
</g>
</svg>
