<svg height="512pt" viewBox="-106 0 512 512" width="512pt" xmlns="http://www.w3.org/2000/svg"><path d="m0 248.398438c0 45.003906 10.367188 90.066406 30 130.5625v118.039062c0 8.285156 6.714844 15 15 15h180c8.285156 0 15-6.714844 15-15v-85.507812c2.511719-2.5625 6.703125-6.808594 13.6875-13.839844 29.863281-30.078125 46.3125-69.984375 46.3125-112.371094 0-23.742188-10.96875-45.765625-30.003906-60.179688 0-.035156.003906-.066406.003906-.101562v-180c0-24.8125-20.1875-45-45-45s-45 20.1875-45 45v47.578125c-4.695312-1.664063-9.742188-2.578125-15-2.578125-20.878906 0-38.480469 14.296875-43.535156 33.613281-5.105469-2.015625-10.65625-3.132812-16.464844-3.132812-20.722656 0-38.210938 14.082031-43.414062 33.179687-5.136719-2.046875-10.730469-3.179687-16.585938-3.179687-24.8125 0-45 20.183593-45 45zm232.398438 128.113281c-5.074219 5.109375-9.601563 9.683593-12.867188 13.007812-7.128906 7.257813-9.53125 9.703125-9.53125 15.960938v76.519531h-150v-106.519531c0-2.300781-.605469-4.75-1.582031-6.707031-15.644531-31.289063-25.082031-65.722657-27.679688-100.625 4.484375 1.503906 9.277344 2.332031 14.261719 2.332031 11.519531 0 22.03125-4.355469 30-11.496094 7.96875 7.144531 18.484375 11.496094 30 11.496094 9.339844 0 18.023438-2.863281 25.222656-7.753907 7.25 12.402344 17.949219 22.535157 30.78125 29.089844-24.917968 19.21875-41.003906 49.355469-41.003906 83.183594 0 8.285156 6.714844 15 15 15s15-6.714844 15-15c0-41.355469 33.644531-75 75-75 8.285156 0 15-6.714844 15-15s-6.714844-15-15-15c-6.785156 0-23.96875 0-30 0-19.554688 0-36.238281-12.539062-42.429688-30h72.429688c24.824219 0 45 20.355469 45 45.28125 0 34.414062-13.355469 66.8125-37.601562 91.230469zm-22.398438-331.511719c0-8.269531 6.730469-15 15-15s15 6.730469 15 15v166.523438c-4.917969-1-9.96875-1.523438-15.097656-1.523438h-14.902344c0-16.726562 0-144.824219 0-165zm-60 90c0-8.269531 6.730469-15 15-15s15 6.730469 15 15v75h-30c0-17.746094 0-61.066406 0-75zm-60 30.480469c0-8.269531 6.730469-15 15-15s15 6.730469 15 15v60c0 8.269531-6.730469 15-15 15s-15-6.730469-15-15c0-7.257813 0-52.695313 0-60zm-45 15c8.269531 0 15 6.730469 15 15v30c0 8.269531-6.730469 15-15 15s-15-6.730469-15-15v-30c0-8.269531 6.730469-15 15-15zm0 0"/></svg>