<svg height="512pt" viewBox="-106 0 512 512" width="512pt" xmlns="http://www.w3.org/2000/svg"><path d="m0 248.398438c0 45.003906 10.367188 90.066406 30 130.5625v118.039062c0 8.285156 6.714844 15 15 15h180c8.285156 0 15-6.714844 15-15v-85.507812c2.511719-2.5625 6.703125-6.808594 13.6875-13.839844 29.863281-30.078125 46.3125-69.984375 46.3125-112.371094 0-34.070312-22.570312-62.53125-52.804688-71.925781l35.992188-125.972657c6.816406-23.851562-7.042969-48.808593-30.878906-55.628906-19.652344-5.644531-39.851563 2.757813-50.308594 19.070313v-5.824219c0-24.8125-20.1875-45-45-45s-45 20.1875-45 45v7.5625c-10.078125-17.453125-31.109375-26.574219-51.355469-20.8125-23.851562 6.824219-37.710937 31.78125-30.894531 55.632812l18.054688 63.191407c-.925782-.054688-1.863282-.09375-2.804688-.09375-24.8125 0-45 20.1875-45 45zm68.875-187.800782c7.957031-2.261718 16.285156 2.363282 18.5625 10.292969l24.5625 85.964844v25.890625c0 8.285156 6.714844 15 15 15s15-6.714844 15-15v-137.746094c0-8.269531 6.730469-15 15-15s15 6.730469 15 15v138.042969c0 8.285156 6.714844 15 15 15s15-6.714844 15-15v-26.425781l23.519531-85.789063c2.226563-7.667969 10.339844-12.585937 18.523438-10.234375 7.949219 2.273438 12.570312 10.59375 10.296875 18.546875l-37.386719 130.859375h-81.953125c-8.285156 0-15 6.714844-15 15 0 29.121094 16.691406 54.398438 41.003906 66.816406-24.917968 19.21875-41.003906 49.355469-41.003906 83.183594 0 8.285156 6.714844 15 15 15s15-6.714844 15-15c0-41.355469 33.644531-75 75-75 8.285156 0 15-6.714844 15-15s-6.714844-15-15-15c-40.769531 0-19.300781.023438-30 0-19.558594 0-36.238281-12.539062-42.429688-30h72.328126c2.53125.566406 17.84375-.730469 31.753906 13.15625 8.609375 8.589844 13.347656 20 13.347656 32.125 0 34.414062-13.355469 66.8125-37.601562 91.230469-5.074219 5.109375-9.605469 9.6875-12.867188 13.007812-7.128906 7.257813-9.53125 9.703125-9.53125 15.960938v76.519531h-150v-106.519531c0-2.308594-.605469-4.753907-1.582031-6.707031-15.644531-31.289063-25.082031-65.722657-27.679688-100.625 4.484375 1.503906 9.277344 2.332031 14.261719 2.332031 24.8125 0 45-20.1875 45-45v-30c0-5.304688-.820312-9.308594-2.257812-14.332031l-29.144532-102.007813c-2.273437-7.953125 2.347656-16.273437 10.277344-18.542969zm-23.875 119.882813c8.269531 0 15 6.730469 15 15v30c0 8.269531-6.730469 15-15 15s-15-6.730469-15-15v-30c0-8.269531 6.730469-15 15-15zm0 0"/></svg>