<?xml version="1.0" encoding="iso-8859-1"?>
<!-- Generator: Adobe Illustrator 19.0.0, SVG Export Plug-In . SVG Version: 6.00 Build 0)  -->
<svg version="1.1" id="Capa_1" xmlns="http://www.w3.org/2000/svg" xmlns:xlink="http://www.w3.org/1999/xlink" x="0px" y="0px"
	 viewBox="0 0 512.001 512.001" style="enable-background:new 0 0 512.001 512.001;" xml:space="preserve">
<g>
	<g>
		<path d="M361.767,120.292c-5.655,0-11.065,1.059-16.054,2.974c-4.29-18.842-21.167-32.951-41.289-32.951h-5.225
			c-1.463,0-2.908,0.075-4.333,0.22l6.337-37.742c4.051-24.461-12.554-47.658-37.015-51.71c-24.454-4.051-47.658,12.553-51.708,37
			l-9.69,58.138l-8.011-57.426c-3.404-24.559-26.164-41.769-50.714-38.364c-24.607,3.411-41.781,26.082-38.364,50.728
			l19.269,138.087c-10.93,8.211-18.013,21.278-18.013,35.969V289.6c0,38.326,16.527,76.211,47.793,109.56
			c7.843,8.364,12.162,19.286,12.162,30.754c0,24.763,0,57.411,0,82.086h209.844v-92.767c0-6.944,1.642-13.898,4.746-20.109
			l7.824-15.648c11.388-22.775,17.407-48.272,17.407-73.735c0-3.815,0-137.258,0-144.482
			C406.733,140.464,386.561,120.292,361.767,120.292z M286.822,132.668c0-6.825,5.553-12.377,12.377-12.377h5.225
			c6.824,0,12.377,5.552,12.377,12.377c0,12.078,0,90.537,0,95.157c0,6.825-5.553,12.377-12.377,12.377h-5.225
			c-6.824,0-12.377-5.552-12.377-12.377C286.822,206.22,286.822,153.933,286.822,132.668z M242.052,42.997
			c1.352-8.154,9.086-13.689,17.237-12.339c8.154,1.351,13.689,9.083,12.345,17.204l-11.489,68.422
			c-2.123,5.043-3.299,10.579-3.299,16.385v47.579h-37.667L242.052,42.997z M148.181,30.123c8.197-1.135,15.77,4.602,16.907,12.801
			l19.157,137.323h-30.262l-18.59-133.22C134.255,38.823,139.974,31.261,148.181,30.123z M376.756,309.74
			c0,20.833-4.925,41.695-14.241,60.329l-7.825,15.648c-5.176,10.353-7.911,21.942-7.911,33.515v62.789H196.89
			c0-15.551,0-35.591,0-52.108c0-19.114-7.199-37.317-20.271-51.258c-18.104-19.31-39.684-50.435-39.684-89.057v-64.386
			c0-8.265,6.724-15.089,14.989-15.089h102.354c-6.185,17.448-22.856,30.078-42.398,30.078h-29.978v29.978
			c41.324,0,74.944,33.62,74.944,74.944h29.978c0-33.793-16.059-63.906-40.947-83.109c6.299-3.221,12.081-7.314,17.196-12.107
			c7.453,12.149,20.858,20.272,36.126,20.272h5.225c10.815,0,20.693-4.08,28.186-10.776c7.857,6.711,18.039,10.776,29.157,10.776
			c5.255,0,10.297-0.914,14.989-2.578V309.74z M376.756,225.213c0,8.265-6.724,14.989-14.989,14.989
			c-8.265,0-14.989-6.724-14.989-14.989v-59.955c0-8.265,6.723-14.989,14.989-14.989c8.265,0,14.989,6.724,14.989,14.989V225.213z"
			/>
	</g>
</g>
<g>
</g>
<g>
</g>
<g>
</g>
<g>
</g>
<g>
</g>
<g>
</g>
<g>
</g>
<g>
</g>
<g>
</g>
<g>
</g>
<g>
</g>
<g>
</g>
<g>
</g>
<g>
</g>
<g>
</g>
</svg>
