<svg xmlns="http://www.w3.org/2000/svg" height="512pt" version="1.1" viewBox="-24 0 512 512.001" width="512pt">
<g id="surface1">
<path d="M 463.730469 160.949219 C 463.757812 160.660156 463.765625 160.371094 463.773438 160.085938 C 463.78125 159.921875 463.796875 159.761719 463.796875 159.601562 C 463.796875 159.535156 463.792969 159.46875 463.792969 159.402344 C 463.792969 159.296875 463.789062 159.191406 463.785156 159.089844 C 463.550781 129.632812 443.070312 104.929688 415.597656 98.214844 L 415.597656 79.269531 C 415.597656 44.417969 387.25 16.066406 352.402344 16.066406 C 336.472656 16.066406 321.914062 22.003906 310.789062 31.757812 C 299.867188 12.800781 279.40625 0 256 0 C 232.59375 0 212.132812 12.800781 201.210938 31.757812 C 190.085938 22 175.527344 16.066406 159.601562 16.066406 C 131.574219 16.066406 107.761719 34.410156 99.511719 59.71875 C 89.226562 52.472656 76.707031 48.199219 63.199219 48.199219 C 28.351562 48.199219 0 76.550781 0 111.398438 L 0 159.601562 C 0 166.898438 1.257812 173.90625 3.546875 180.433594 L 32.6875 340.578125 C 32.703125 340.664062 32.71875 340.753906 32.738281 340.839844 C 39.4375 374.300781 63.945312 404.570312 96.398438 420.394531 L 96.398438 456.835938 C 96.398438 487.253906 121.148438 512 151.566406 512 L 312.234375 512 C 342.652344 512 367.398438 487.253906 367.398438 456.835938 L 367.398438 420.394531 C 399.863281 404.570312 424.371094 374.292969 431.0625 340.835938 C 431.082031 340.75 431.097656 340.664062 431.113281 340.578125 L 463.558594 162.285156 C 463.585938 162.121094 463.597656 161.957031 463.621094 161.789062 C 463.664062 161.511719 463.707031 161.234375 463.730469 160.949219 Z M 352.402344 46.066406 C 370.707031 46.066406 385.597656 60.960938 385.597656 79.265625 L 385.597656 96.398438 L 319.199219 96.398438 L 319.199219 79.269531 C 319.199219 60.960938 334.09375 46.066406 352.402344 46.066406 Z M 222.800781 63.199219 C 222.800781 44.894531 237.695312 30 256 30 C 274.304688 30 289.199219 44.894531 289.199219 63.199219 L 289.199219 96.398438 L 256 96.398438 C 243.828125 96.398438 232.457031 99.867188 222.800781 105.851562 Z M 126.402344 79.269531 C 126.402344 60.960938 141.292969 46.066406 159.597656 46.066406 C 177.90625 46.066406 192.800781 60.960938 192.800781 79.269531 L 192.800781 159.601562 C 192.800781 177.90625 177.90625 192.800781 159.597656 192.800781 C 141.292969 192.800781 126.402344 177.90625 126.402344 159.601562 Z M 63.199219 78.199219 C 81.507812 78.199219 96.402344 93.09375 96.402344 111.398438 L 96.402344 159.601562 C 96.402344 177.90625 81.507812 192.800781 63.199219 192.800781 C 49.441406 192.800781 37.609375 184.386719 32.582031 172.429688 L 30 158.246094 L 30 111.398438 C 30 93.09375 44.894531 78.199219 63.199219 78.199219 Z M 401.621094 335.070312 C 396.292969 361.445312 374.382812 386.136719 347.058594 396.542969 C 341.242188 398.757812 337.398438 404.335938 337.398438 410.558594 L 337.398438 456.832031 C 337.398438 470.710938 326.109375 482 312.234375 482 L 151.566406 482 C 137.691406 482 126.398438 470.710938 126.398438 456.832031 L 126.398438 410.558594 C 126.398438 404.335938 122.554688 398.757812 116.738281 396.542969 C 89.421875 386.140625 67.511719 361.445312 62.175781 335.070312 L 41.015625 218.769531 C 47.921875 221.367188 55.394531 222.800781 63.199219 222.800781 C 82.5 222.800781 99.796875 214.09375 111.402344 200.414062 C 123.003906 214.09375 140.300781 222.800781 159.601562 222.800781 C 178.902344 222.800781 196.199219 214.09375 207.800781 200.414062 C 219.402344 214.09375 236.699219 222.800781 256 222.800781 L 352.402344 222.800781 C 360.683594 222.800781 367.402344 216.085938 367.402344 207.800781 C 367.402344 199.515625 360.683594 192.800781 352.402344 192.800781 L 256 192.800781 C 237.695312 192.800781 222.800781 177.90625 222.800781 159.601562 C 222.800781 141.292969 237.695312 126.402344 256 126.402344 L 400.601562 126.402344 C 418.507812 126.402344 433.140625 140.652344 433.769531 158.410156 Z M 401.621094 335.070312 " style=" stroke:none;fill-rule:nonzero;fill:rgb(0%,0%,0%);fill-opacity:1;" />
</g>
</svg>